# xmcd
#
# Track frame offsets:
#	150
#	14838
#	27915
#	41310
#	54224
#	67455
#	81635
#	94208
#	107175
#	121234
#	134061
#	147440
#	161061
#	174115
#	185748
#	199067
#	211676
#	224444
#	236815
#	249405
#
# Disc length: 3471 seconds
#
# Revision: 1
# Processed by: cddbd v1.5.2PL0 Copyright (c) Steve Scherf et al.
# Submitted via: audiograbber 1.83.01
#
DISCID=330d8d14
DTITLE=Blind Lemon Jefferson - 1926/1927
DYEAR=1900
DGENRE=Blues
TTITLE0=All I want is pure religion
TTITLE1=Got the blues
TTITLE2=Long lonesome blues
TTITLE3=Dry southern blues
TTITLE4=Black horse blues
TTITLE5=Corinna blues
TTITLE6=Jack O'Diamond blues
TTITLE7=Beggin' back
TTITLE8=That black snake moan
TTITLE9=Booger Rooger blues
TTITLE10=Rabbit foot blues
TTITLE11=Matchbox blues
TTITLE12=Right of way blues
TTITLE13=Teddy bear blues
TTITLE14=Hot dogs
TTITLE15=Rambler blues
TTITLE16=Ching bug blues
TTITLE17=Sunshine special
TTITLE18=One dime blues
TTITLE19=Lonesome house blues
EXTD=
EXTT0=
EXTT1=
EXTT2=
EXTT3=
EXTT4=
EXTT5=
EXTT6=
EXTT7=
EXTT8=
EXTT9=
EXTT10=
EXTT11=
EXTT12=
EXTT13=
EXTT14=
EXTT15=
EXTT16=
EXTT17=
EXTT18=
EXTT19=
PLAYORDER=
